# xmcd
#
# Track frame offsets: 
#        150
#        27583
#        45705
#        82288
#        108200
#        134190
#        167893
#        198753
#        223293
#        250413
#        269955
#        304133
#
# Disc length: 4354 seconds
#
# Revision: 0
# Processed by: cddbd v1.5.2PL0 Copyright (c) Steve Scherf et al.
# Submitted via: ExactAudioCopy v1.0b3
#
DISCID=c411000c
DTITLE=Son Ca, VA - Co Tham Ve Lang
DYEAR=1992
DGENRE=
TTITLE0=Son Ca, Bui Thien - Gao trang trang thanh
TTITLE1=Thanh Tuyen - Noi buon gac tro
TTITLE2=Huong Lan - Doi thong hai mo
TTITLE3=Duy Quang - Hoa bien
TTITLE4=Son Ca - Chuyen tinh co lai do Ben Ha
TTITLE5=Giao Linh - Vuon Tao ngo
TTITLE6=Kim Tuyen - Chuyen tinh Lan va Diep
TTITLE7=Son Ca - Co Tham ve lang
TTITLE8=Duy Quang - Chuyen tinh
TTITLE9=Phuong Hoai Linh - Tinh anh linh chien
TTITLE10=Giao Linh - Dau chan ky niem
TTITLE11=Son Ca, Bui Thien - Bai ngoi ca que huong
EXTD=
EXTT0=
EXTT1=
EXTT2=
EXTT3=
EXTT4=
EXTT5=
EXTT6=
EXTT7=
EXTT8=
EXTT9=
EXTT10=
EXTT11=
PLAYORDER=
